<svg id="visual" viewBox="0 0 2000 400" width="2000" height="400" xmlns="http://www.w3.org/2000/svg" xmlns:xlink="http://www.w3.org/1999/xlink" version="1.1"><rect x="0" y="0" width="2000" height="400" fill="#edd4e5"></rect><path d="M0 249L83.3 258.5C166.7 268 333.3 287 500 292.2C666.7 297.3 833.3 288.7 1000 274.5C1166.7 260.3 1333.3 240.7 1500 216.5C1666.7 192.3 1833.3 163.7 1916.7 149.3L2000 135L2000 401L1916.7 401C1833.3 401 1666.7 401 1500 401C1333.3 401 1166.7 401 1000 401C833.3 401 666.7 401 500 401C333.3 401 166.7 401 83.3 401L0 401Z" fill="#fff" stroke-linecap="round" stroke-linejoin="miter"></path></svg>